# xmcd
#
# Track frame offsets: 
#        150
#        15645
#        30130
#        42185
#        59132
#        75375
#        82217
#        97130
#        112972
#        129810
#        145585
#        162935
#
# Disc length: 2248 seconds
#
# Revision: 3
# Processed by: cddbd v1.5.2PL0 Copyright (c) Steve Scherf et al.
# Submitted via: ExactAudioCopyFreeDBPlugin 1.0
#
DISCID=8e08c60c
DTITLE=Ben Sidran - Don't Let Go
DYEAR=1974
DGENRE=Jazz
TTITLE0=Fat Jam
TTITLE1=House Of Blue Lites
TTITLE2=Ben Sidran's Midnite Tango
TTITLE3=The Chicken Glide
TTITLE4=She's Funny (That Way)
TTITLE5=Monopoly
TTITLE6=Don't Let Go
TTITLE7=Hey Hey Baby
TTITLE8=The Foolkiller
TTITLE9=The Funky Elephant
TTITLE10=Snatch
TTITLE11=Down To The Bone
EXTD=YEAR: 1974
EXTT0=
EXTT1=
EXTT2=
EXTT3=
EXTT4=
EXTT5=
EXTT6=
EXTT7=
EXTT8=
EXTT9=
EXTT10=
EXTT11=
PLAYORDER=
